G04 #@! TF.FileFunction,Copper,L1,Top,Signal*
%FSLAX46Y46*%
G04 Gerber Fmt 4.6, Leading zero omitted, Abs format (unit mm)*
G04 Created by KiCad (PCBNEW 4.0.7) date 03/25/18 14:44:14*
%MOMM*%
%LPD*%
G01*
G04 APERTURE LIST*
%ADD10C,0.100000*%
%ADD11R,1.800000X2.600000*%
%ADD12C,1.500000*%
%ADD13R,1.700000X1.700000*%
%ADD14O,1.700000X1.700000*%
%ADD15R,1.600000X1.600000*%
%ADD16O,1.600000X1.600000*%
%ADD17R,1.500000X1.300000*%
%ADD18R,3.800000X2.000000*%
%ADD19R,1.500000X2.000000*%
%ADD20C,0.600000*%
%ADD21C,0.250000*%
G04 APERTURE END LIST*
D10*
D11*
X175260000Y-109630000D03*
X175260000Y-113030000D03*
X171450000Y-109630000D03*
X171450000Y-113030000D03*
X171450000Y-118520000D03*
X171450000Y-121920000D03*
X175260000Y-118520000D03*
X175260000Y-121920000D03*
D12*
X173990000Y-128090000D03*
X169090000Y-128090000D03*
D13*
X198120000Y-96520000D03*
D14*
X198120000Y-99060000D03*
X198120000Y-101600000D03*
X198120000Y-104140000D03*
X198120000Y-106680000D03*
X198120000Y-109220000D03*
X198120000Y-111760000D03*
X198120000Y-114300000D03*
D15*
X180340000Y-96520000D03*
D16*
X187960000Y-129540000D03*
X180340000Y-99060000D03*
X187960000Y-127000000D03*
X180340000Y-101600000D03*
X187960000Y-124460000D03*
X180340000Y-104140000D03*
X187960000Y-121920000D03*
X180340000Y-106680000D03*
X187960000Y-119380000D03*
X180340000Y-109220000D03*
X187960000Y-116840000D03*
X180340000Y-111760000D03*
X187960000Y-114300000D03*
X180340000Y-114300000D03*
X187960000Y-111760000D03*
X180340000Y-116840000D03*
X187960000Y-109220000D03*
X180340000Y-119380000D03*
X187960000Y-106680000D03*
X180340000Y-121920000D03*
X187960000Y-104140000D03*
X180340000Y-124460000D03*
X187960000Y-101600000D03*
X180340000Y-127000000D03*
X187960000Y-99060000D03*
X180340000Y-129540000D03*
X187960000Y-96520000D03*
D13*
X180340000Y-91440000D03*
D14*
X182880000Y-91440000D03*
D13*
X187960000Y-91440000D03*
D14*
X190500000Y-91440000D03*
X193040000Y-91440000D03*
X195580000Y-91440000D03*
X198120000Y-91440000D03*
D17*
X194470000Y-95250000D03*
X191770000Y-95250000D03*
X194470000Y-102870000D03*
X191770000Y-102870000D03*
X194390000Y-110490000D03*
X191690000Y-110490000D03*
X194470000Y-99060000D03*
X191770000Y-99060000D03*
X194470000Y-106680000D03*
X191770000Y-106680000D03*
X194390000Y-114300000D03*
X191690000Y-114300000D03*
D13*
X198120000Y-123190000D03*
D14*
X198120000Y-120650000D03*
D13*
X193040000Y-124460000D03*
D14*
X193040000Y-121920000D03*
X193040000Y-119380000D03*
D13*
X166370000Y-110490000D03*
D14*
X166370000Y-113030000D03*
X166370000Y-115570000D03*
X166370000Y-118110000D03*
X166370000Y-120650000D03*
D13*
X166370000Y-92710000D03*
D14*
X166370000Y-95250000D03*
X166370000Y-97790000D03*
X166370000Y-100330000D03*
X166370000Y-102870000D03*
D18*
X172960000Y-99110000D03*
D19*
X172960000Y-105410000D03*
X175260000Y-105410000D03*
X170660000Y-105410000D03*
D20*
X168910000Y-113030000D03*
X195580000Y-93980000D03*
X172720000Y-101600000D03*
X177800000Y-111760000D03*
X177175000Y-115570000D03*
D21*
X168910000Y-113030000D02*
X168910000Y-112605736D01*
X168910000Y-112605736D02*
X170110737Y-111404999D01*
X170110737Y-111404999D02*
X172335001Y-111404999D01*
X172335001Y-111404999D02*
X174110000Y-109630000D01*
X174110000Y-109630000D02*
X175260000Y-109630000D01*
X195580000Y-93980000D02*
X181780000Y-93980000D01*
X181780000Y-93980000D02*
X180340000Y-92540000D01*
X180340000Y-92540000D02*
X180340000Y-91440000D01*
X175260000Y-105410000D02*
X175260000Y-104140000D01*
X175260000Y-104140000D02*
X172720000Y-101600000D01*
X193040000Y-124460000D02*
X191940000Y-124460000D01*
X191940000Y-124460000D02*
X190814999Y-125585001D01*
X190814999Y-125585001D02*
X187419999Y-125585001D01*
X187419999Y-125585001D02*
X181465001Y-119630003D01*
X181465001Y-119630003D02*
X181465001Y-112885001D01*
X181465001Y-112885001D02*
X181139999Y-112559999D01*
X181139999Y-112559999D02*
X180340000Y-111760000D01*
X175260000Y-109630000D02*
X178210000Y-109630000D01*
X178210000Y-109630000D02*
X180340000Y-111760000D01*
X175260000Y-105410000D02*
X175260000Y-106680000D01*
X175260000Y-106680000D02*
X175260000Y-109630000D01*
X170660000Y-105410000D02*
X170660000Y-105660000D01*
X198120000Y-109220000D02*
X199390000Y-107950000D01*
X199390000Y-107950000D02*
X199390000Y-90970998D01*
X199390000Y-90970998D02*
X198589002Y-90170000D01*
X170180000Y-90170000D02*
X170180000Y-102380000D01*
X198589002Y-90170000D02*
X170180000Y-90170000D01*
X170180000Y-102380000D02*
X172960000Y-105160000D01*
X172960000Y-105160000D02*
X172960000Y-105410000D01*
X172960000Y-105410000D02*
X172960000Y-109270000D01*
X172960000Y-109270000D02*
X172600000Y-109630000D01*
X172600000Y-109630000D02*
X171450000Y-109630000D01*
X172600000Y-118520000D02*
X171450000Y-118520000D01*
X172600000Y-118520000D02*
X172720000Y-118640000D01*
X173990000Y-119910000D02*
X173990000Y-127029340D01*
X172600000Y-118520000D02*
X173990000Y-119910000D01*
X173990000Y-127029340D02*
X173990000Y-128090000D01*
X175260000Y-118520000D02*
X175260000Y-116559998D01*
X175260000Y-116559998D02*
X176874999Y-114944999D01*
X178444999Y-114944999D02*
X179540001Y-116040001D01*
X176874999Y-114944999D02*
X178444999Y-114944999D01*
X179540001Y-116040001D02*
X180340000Y-116840000D01*
X175260000Y-118520000D02*
X174110000Y-118520000D01*
X174110000Y-118520000D02*
X172484999Y-116894999D01*
X170289999Y-116894999D02*
X169090000Y-118094998D01*
X172484999Y-116894999D02*
X170289999Y-116894999D01*
X169090000Y-118094998D02*
X169090000Y-127029340D01*
X169090000Y-127029340D02*
X169090000Y-128090000D01*
X195580000Y-95250000D02*
X196850000Y-96520000D01*
X196850000Y-96520000D02*
X198120000Y-96520000D01*
X194470000Y-95250000D02*
X195580000Y-95250000D01*
X194470000Y-99060000D02*
X198120000Y-99060000D01*
X194470000Y-102870000D02*
X196850000Y-102870000D01*
X196850000Y-102870000D02*
X198120000Y-101600000D01*
X194470000Y-106680000D02*
X195580000Y-106680000D01*
X195580000Y-106680000D02*
X198120000Y-104140000D01*
X194390000Y-110490000D02*
X194490000Y-110490000D01*
X194490000Y-110490000D02*
X198120000Y-106860000D01*
X198120000Y-106860000D02*
X198120000Y-106680000D01*
X194390000Y-114300000D02*
X195580000Y-114300000D01*
X195580000Y-114300000D02*
X198120000Y-111760000D01*
X191770000Y-106680000D02*
X191770000Y-107580000D01*
X191770000Y-107580000D02*
X193314999Y-109124999D01*
X193314999Y-109124999D02*
X193314999Y-117365999D01*
X193314999Y-117365999D02*
X189085001Y-121595997D01*
X189085001Y-121595997D02*
X189085001Y-123334999D01*
X188759999Y-123660001D02*
X187960000Y-124460000D01*
X189085001Y-123334999D02*
X188759999Y-123660001D01*
X166370000Y-118110000D02*
X169824999Y-114655001D01*
X176420001Y-114655001D02*
X177800000Y-113275002D01*
X169824999Y-114655001D02*
X176420001Y-114655001D01*
X177800000Y-113275002D02*
X177800000Y-111760000D01*
X191690000Y-114300000D02*
X191590000Y-114300000D01*
X190175001Y-112885001D02*
X186545001Y-112885001D01*
X191590000Y-114300000D02*
X190175001Y-112885001D01*
X186545001Y-112885001D02*
X181139999Y-107479999D01*
X181139999Y-107479999D02*
X180340000Y-106680000D01*
X191690000Y-110490000D02*
X191690000Y-111390000D01*
X189091370Y-119380000D02*
X187960000Y-119380000D01*
X191690000Y-111390000D02*
X192765001Y-112465001D01*
X192765001Y-112465001D02*
X192765001Y-115706369D01*
X192765001Y-115706369D02*
X189091370Y-119380000D01*
X191770000Y-95250000D02*
X187564998Y-95250000D01*
X187564998Y-95250000D02*
X186834999Y-95979999D01*
X186834999Y-95979999D02*
X186834999Y-108094999D01*
X186834999Y-108094999D02*
X187160001Y-108420001D01*
X187160001Y-108420001D02*
X187960000Y-109220000D01*
X191770000Y-99060000D02*
X191770000Y-99960000D01*
X191770000Y-99960000D02*
X192845001Y-101035001D01*
X192845001Y-101035001D02*
X192845001Y-103780001D01*
X190920003Y-105704999D02*
X188935001Y-105704999D01*
X192845001Y-103780001D02*
X190920003Y-105704999D01*
X188935001Y-105704999D02*
X188759999Y-105880001D01*
X188759999Y-105880001D02*
X187960000Y-106680000D01*
X166370000Y-120650000D02*
X166370000Y-126961002D01*
X181139999Y-122719999D02*
X180340000Y-121920000D01*
X166370000Y-126961002D02*
X168573999Y-129165001D01*
X181465001Y-123045001D02*
X181139999Y-122719999D01*
X168573999Y-129165001D02*
X174506001Y-129165001D01*
X174506001Y-129165001D02*
X178086001Y-125585001D01*
X178086001Y-125585001D02*
X180880001Y-125585001D01*
X180880001Y-125585001D02*
X181465001Y-125000001D01*
X181465001Y-125000001D02*
X181465001Y-123045001D01*
X166370000Y-102870000D02*
X165100000Y-104140000D01*
X165100000Y-104140000D02*
X165100000Y-119380000D01*
X165520001Y-119800001D02*
X166370000Y-120650000D01*
X165100000Y-119380000D02*
X165520001Y-119800001D01*
X189230000Y-102870000D02*
X187960000Y-104140000D01*
X191770000Y-102870000D02*
X189230000Y-102870000D01*
X166370000Y-115570000D02*
X167640000Y-114300000D01*
X167640000Y-114300000D02*
X167640000Y-99060000D01*
X167640000Y-99060000D02*
X167219999Y-98639999D01*
X167219999Y-98639999D02*
X166370000Y-97790000D01*
X177175000Y-115570000D02*
X177175000Y-121295000D01*
X177175000Y-121295000D02*
X180340000Y-124460000D01*
X198120000Y-123190000D02*
X197020000Y-123190000D01*
X181465001Y-128414999D02*
X181139999Y-128740001D01*
X181139999Y-128740001D02*
X180340000Y-129540000D01*
X197020000Y-123190000D02*
X191795001Y-128414999D01*
X191795001Y-128414999D02*
X181465001Y-128414999D01*
M02*
