G04 #@! TF.FileFunction,Legend,Top*
%FSLAX46Y46*%
G04 Gerber Fmt 4.6, Leading zero omitted, Abs format (unit mm)*
G04 Created by KiCad (PCBNEW 4.0.7) date 03/25/18 14:44:14*
%MOMM*%
%LPD*%
G01*
G04 APERTURE LIST*
%ADD10C,0.100000*%
%ADD11C,0.120000*%
%ADD12C,0.150000*%
G04 APERTURE END LIST*
D10*
D11*
X176410000Y-108030000D02*
X176410000Y-112330000D01*
X174110000Y-108030000D02*
X174110000Y-112330000D01*
X176410000Y-108030000D02*
X174110000Y-108030000D01*
X172600000Y-108030000D02*
X172600000Y-112330000D01*
X170300000Y-108030000D02*
X170300000Y-112330000D01*
X172600000Y-108030000D02*
X170300000Y-108030000D01*
X172600000Y-116920000D02*
X172600000Y-121220000D01*
X170300000Y-116920000D02*
X170300000Y-121220000D01*
X172600000Y-116920000D02*
X170300000Y-116920000D01*
X176410000Y-116920000D02*
X176410000Y-121220000D01*
X174110000Y-116920000D02*
X174110000Y-121220000D01*
X176410000Y-116920000D02*
X174110000Y-116920000D01*
X174665000Y-130615000D02*
X168415000Y-130615000D01*
X174665000Y-125565000D02*
X168415000Y-125565000D01*
X174665000Y-125565000D02*
G75*
G02X174665000Y-130615000I0J-2525000D01*
G01*
X168415000Y-125565000D02*
G75*
G03X168415000Y-130615000I0J-2525000D01*
G01*
X196790000Y-115630000D02*
X199450000Y-115630000D01*
X196790000Y-97790000D02*
X196790000Y-115630000D01*
X199450000Y-97790000D02*
X199450000Y-115630000D01*
X196790000Y-97790000D02*
X199450000Y-97790000D01*
X196790000Y-96520000D02*
X196790000Y-95190000D01*
X196790000Y-95190000D02*
X198120000Y-95190000D01*
X185150000Y-95190000D02*
G75*
G02X183150000Y-95190000I-1000000J0D01*
G01*
X183150000Y-95190000D02*
X181500000Y-95190000D01*
X181500000Y-95190000D02*
X181500000Y-130870000D01*
X181500000Y-130870000D02*
X186800000Y-130870000D01*
X186800000Y-130870000D02*
X186800000Y-95190000D01*
X186800000Y-95190000D02*
X185150000Y-95190000D01*
X179010000Y-95130000D02*
X179010000Y-130930000D01*
X179010000Y-130930000D02*
X189290000Y-130930000D01*
X189290000Y-130930000D02*
X189290000Y-95130000D01*
X189290000Y-95130000D02*
X179010000Y-95130000D01*
X184210000Y-92770000D02*
X184210000Y-90110000D01*
X181610000Y-92770000D02*
X184210000Y-92770000D01*
X181610000Y-90110000D02*
X184210000Y-90110000D01*
X181610000Y-92770000D02*
X181610000Y-90110000D01*
X180340000Y-92770000D02*
X179010000Y-92770000D01*
X179010000Y-92770000D02*
X179010000Y-91440000D01*
X199450000Y-92770000D02*
X199450000Y-90110000D01*
X189230000Y-92770000D02*
X199450000Y-92770000D01*
X189230000Y-90110000D02*
X199450000Y-90110000D01*
X189230000Y-92770000D02*
X189230000Y-90110000D01*
X187960000Y-92770000D02*
X186630000Y-92770000D01*
X186630000Y-92770000D02*
X186630000Y-91440000D01*
X192520000Y-94370000D02*
X193720000Y-94370000D01*
X193720000Y-96130000D02*
X192520000Y-96130000D01*
X192520000Y-101990000D02*
X193720000Y-101990000D01*
X193720000Y-103750000D02*
X192520000Y-103750000D01*
X192440000Y-109610000D02*
X193640000Y-109610000D01*
X193640000Y-111370000D02*
X192440000Y-111370000D01*
X192520000Y-98180000D02*
X193720000Y-98180000D01*
X193720000Y-99940000D02*
X192520000Y-99940000D01*
X192520000Y-105800000D02*
X193720000Y-105800000D01*
X193720000Y-107560000D02*
X192520000Y-107560000D01*
X192440000Y-113420000D02*
X193640000Y-113420000D01*
X193640000Y-115180000D02*
X192440000Y-115180000D01*
X199450000Y-119320000D02*
X196790000Y-119320000D01*
X199450000Y-121920000D02*
X199450000Y-119320000D01*
X196790000Y-121920000D02*
X196790000Y-119320000D01*
X199450000Y-121920000D02*
X196790000Y-121920000D01*
X199450000Y-123190000D02*
X199450000Y-124520000D01*
X199450000Y-124520000D02*
X198120000Y-124520000D01*
X194370000Y-118050000D02*
X191710000Y-118050000D01*
X194370000Y-123190000D02*
X194370000Y-118050000D01*
X191710000Y-123190000D02*
X191710000Y-118050000D01*
X194370000Y-123190000D02*
X191710000Y-123190000D01*
X194370000Y-124460000D02*
X194370000Y-125790000D01*
X194370000Y-125790000D02*
X193040000Y-125790000D01*
X165040000Y-121980000D02*
X167700000Y-121980000D01*
X165040000Y-111760000D02*
X165040000Y-121980000D01*
X167700000Y-111760000D02*
X167700000Y-121980000D01*
X165040000Y-111760000D02*
X167700000Y-111760000D01*
X165040000Y-110490000D02*
X165040000Y-109160000D01*
X165040000Y-109160000D02*
X166370000Y-109160000D01*
X165040000Y-104200000D02*
X167700000Y-104200000D01*
X165040000Y-93980000D02*
X165040000Y-104200000D01*
X167700000Y-93980000D02*
X167700000Y-104200000D01*
X165040000Y-93980000D02*
X167700000Y-93980000D01*
X165040000Y-92710000D02*
X165040000Y-91380000D01*
X165040000Y-91380000D02*
X166370000Y-91380000D01*
X176370000Y-100350000D02*
X175110000Y-100350000D01*
X169550000Y-100350000D02*
X170810000Y-100350000D01*
X176370000Y-104110000D02*
X176370000Y-100350000D01*
X169550000Y-106360000D02*
X169550000Y-100350000D01*
D12*
X196786667Y-125972381D02*
X196453333Y-125496190D01*
X196215238Y-125972381D02*
X196215238Y-124972381D01*
X196596191Y-124972381D01*
X196691429Y-125020000D01*
X196739048Y-125067619D01*
X196786667Y-125162857D01*
X196786667Y-125305714D01*
X196739048Y-125400952D01*
X196691429Y-125448571D01*
X196596191Y-125496190D01*
X196215238Y-125496190D01*
X197215238Y-125448571D02*
X197548572Y-125448571D01*
X197691429Y-125972381D02*
X197215238Y-125972381D01*
X197215238Y-124972381D01*
X197691429Y-124972381D01*
X198453334Y-125448571D02*
X198120000Y-125448571D01*
X198120000Y-125972381D02*
X198120000Y-124972381D01*
X198596191Y-124972381D01*
X199120000Y-124972381D02*
X199120000Y-125210476D01*
X198881905Y-125115238D02*
X199120000Y-125210476D01*
X199358096Y-125115238D01*
X198977143Y-125400952D02*
X199120000Y-125210476D01*
X199262858Y-125400952D01*
X199881905Y-124972381D02*
X199881905Y-125210476D01*
X199643810Y-125115238D02*
X199881905Y-125210476D01*
X200120001Y-125115238D01*
X199739048Y-125400952D02*
X199881905Y-125210476D01*
X200024763Y-125400952D01*
X178017143Y-111496666D02*
X178064762Y-111544285D01*
X178112381Y-111687142D01*
X178112381Y-111782380D01*
X178064762Y-111925238D01*
X177969524Y-112020476D01*
X177874286Y-112068095D01*
X177683810Y-112115714D01*
X177540952Y-112115714D01*
X177350476Y-112068095D01*
X177255238Y-112020476D01*
X177160000Y-111925238D01*
X177112381Y-111782380D01*
X177112381Y-111687142D01*
X177160000Y-111544285D01*
X177207619Y-111496666D01*
X178112381Y-110544285D02*
X178112381Y-111115714D01*
X178112381Y-110830000D02*
X177112381Y-110830000D01*
X177255238Y-110925238D01*
X177350476Y-111020476D01*
X177398095Y-111115714D01*
X169267143Y-111496666D02*
X169314762Y-111544285D01*
X169362381Y-111687142D01*
X169362381Y-111782380D01*
X169314762Y-111925238D01*
X169219524Y-112020476D01*
X169124286Y-112068095D01*
X168933810Y-112115714D01*
X168790952Y-112115714D01*
X168600476Y-112068095D01*
X168505238Y-112020476D01*
X168410000Y-111925238D01*
X168362381Y-111782380D01*
X168362381Y-111687142D01*
X168410000Y-111544285D01*
X168457619Y-111496666D01*
X168457619Y-111115714D02*
X168410000Y-111068095D01*
X168362381Y-110972857D01*
X168362381Y-110734761D01*
X168410000Y-110639523D01*
X168457619Y-110591904D01*
X168552857Y-110544285D01*
X168648095Y-110544285D01*
X168790952Y-110591904D01*
X169362381Y-111163333D01*
X169362381Y-110544285D01*
X169267143Y-120386666D02*
X169314762Y-120434285D01*
X169362381Y-120577142D01*
X169362381Y-120672380D01*
X169314762Y-120815238D01*
X169219524Y-120910476D01*
X169124286Y-120958095D01*
X168933810Y-121005714D01*
X168790952Y-121005714D01*
X168600476Y-120958095D01*
X168505238Y-120910476D01*
X168410000Y-120815238D01*
X168362381Y-120672380D01*
X168362381Y-120577142D01*
X168410000Y-120434285D01*
X168457619Y-120386666D01*
X168362381Y-120053333D02*
X168362381Y-119434285D01*
X168743333Y-119767619D01*
X168743333Y-119624761D01*
X168790952Y-119529523D01*
X168838571Y-119481904D01*
X168933810Y-119434285D01*
X169171905Y-119434285D01*
X169267143Y-119481904D01*
X169314762Y-119529523D01*
X169362381Y-119624761D01*
X169362381Y-119910476D01*
X169314762Y-120005714D01*
X169267143Y-120053333D01*
X178017143Y-120386666D02*
X178064762Y-120434285D01*
X178112381Y-120577142D01*
X178112381Y-120672380D01*
X178064762Y-120815238D01*
X177969524Y-120910476D01*
X177874286Y-120958095D01*
X177683810Y-121005714D01*
X177540952Y-121005714D01*
X177350476Y-120958095D01*
X177255238Y-120910476D01*
X177160000Y-120815238D01*
X177112381Y-120672380D01*
X177112381Y-120577142D01*
X177160000Y-120434285D01*
X177207619Y-120386666D01*
X177445714Y-119529523D02*
X178112381Y-119529523D01*
X177064762Y-119767619D02*
X177779048Y-120005714D01*
X177779048Y-119386666D01*
X169040000Y-124817143D02*
X168992381Y-124864762D01*
X168849524Y-124912381D01*
X168754286Y-124912381D01*
X168611428Y-124864762D01*
X168516190Y-124769524D01*
X168468571Y-124674286D01*
X168420952Y-124483810D01*
X168420952Y-124340952D01*
X168468571Y-124150476D01*
X168516190Y-124055238D01*
X168611428Y-123960000D01*
X168754286Y-123912381D01*
X168849524Y-123912381D01*
X168992381Y-123960000D01*
X169040000Y-124007619D01*
X169468571Y-124912381D02*
X169468571Y-124245714D01*
X169468571Y-124436190D02*
X169516190Y-124340952D01*
X169563809Y-124293333D01*
X169659047Y-124245714D01*
X169754286Y-124245714D01*
X169992381Y-124245714D02*
X170230476Y-124912381D01*
X170468572Y-124245714D02*
X170230476Y-124912381D01*
X170135238Y-125150476D01*
X170087619Y-125198095D01*
X169992381Y-125245714D01*
X170849524Y-124912381D02*
X170849524Y-124245714D01*
X170849524Y-123912381D02*
X170801905Y-123960000D01*
X170849524Y-124007619D01*
X170897143Y-123960000D01*
X170849524Y-123912381D01*
X170849524Y-124007619D01*
X171278095Y-124864762D02*
X171373333Y-124912381D01*
X171563809Y-124912381D01*
X171659048Y-124864762D01*
X171706667Y-124769524D01*
X171706667Y-124721905D01*
X171659048Y-124626667D01*
X171563809Y-124579048D01*
X171420952Y-124579048D01*
X171325714Y-124531429D01*
X171278095Y-124436190D01*
X171278095Y-124388571D01*
X171325714Y-124293333D01*
X171420952Y-124245714D01*
X171563809Y-124245714D01*
X171659048Y-124293333D01*
X171992381Y-124245714D02*
X172373333Y-124245714D01*
X172135238Y-123912381D02*
X172135238Y-124769524D01*
X172182857Y-124864762D01*
X172278095Y-124912381D01*
X172373333Y-124912381D01*
X173135239Y-124912381D02*
X173135239Y-124388571D01*
X173087620Y-124293333D01*
X172992382Y-124245714D01*
X172801905Y-124245714D01*
X172706667Y-124293333D01*
X173135239Y-124864762D02*
X173040001Y-124912381D01*
X172801905Y-124912381D01*
X172706667Y-124864762D01*
X172659048Y-124769524D01*
X172659048Y-124674286D01*
X172706667Y-124579048D01*
X172801905Y-124531429D01*
X173040001Y-124531429D01*
X173135239Y-124483810D01*
X173754286Y-124912381D02*
X173659048Y-124864762D01*
X173611429Y-124769524D01*
X173611429Y-123912381D01*
X174659049Y-124912381D02*
X174087620Y-124912381D01*
X174373334Y-124912381D02*
X174373334Y-123912381D01*
X174278096Y-124055238D01*
X174182858Y-124150476D01*
X174087620Y-124198095D01*
X201112381Y-108338572D02*
X200112381Y-108338572D01*
X200112381Y-108100477D01*
X200160000Y-107957619D01*
X200255238Y-107862381D01*
X200350476Y-107814762D01*
X200540952Y-107767143D01*
X200683810Y-107767143D01*
X200874286Y-107814762D01*
X200969524Y-107862381D01*
X201064762Y-107957619D01*
X201112381Y-108100477D01*
X201112381Y-108338572D01*
X201112381Y-107338572D02*
X200445714Y-107338572D01*
X200112381Y-107338572D02*
X200160000Y-107386191D01*
X200207619Y-107338572D01*
X200160000Y-107290953D01*
X200112381Y-107338572D01*
X200207619Y-107338572D01*
X201064762Y-106910001D02*
X201112381Y-106814763D01*
X201112381Y-106624287D01*
X201064762Y-106529048D01*
X200969524Y-106481429D01*
X200921905Y-106481429D01*
X200826667Y-106529048D01*
X200779048Y-106624287D01*
X200779048Y-106767144D01*
X200731429Y-106862382D01*
X200636190Y-106910001D01*
X200588571Y-106910001D01*
X200493333Y-106862382D01*
X200445714Y-106767144D01*
X200445714Y-106624287D01*
X200493333Y-106529048D01*
X200445714Y-106052858D02*
X201445714Y-106052858D01*
X200493333Y-106052858D02*
X200445714Y-105957620D01*
X200445714Y-105767143D01*
X200493333Y-105671905D01*
X200540952Y-105624286D01*
X200636190Y-105576667D01*
X200921905Y-105576667D01*
X201017143Y-105624286D01*
X201064762Y-105671905D01*
X201112381Y-105767143D01*
X201112381Y-105957620D01*
X201064762Y-106052858D01*
X201112381Y-105005239D02*
X201064762Y-105100477D01*
X200969524Y-105148096D01*
X200112381Y-105148096D01*
X201112381Y-104195714D02*
X200588571Y-104195714D01*
X200493333Y-104243333D01*
X200445714Y-104338571D01*
X200445714Y-104529048D01*
X200493333Y-104624286D01*
X201064762Y-104195714D02*
X201112381Y-104290952D01*
X201112381Y-104529048D01*
X201064762Y-104624286D01*
X200969524Y-104671905D01*
X200874286Y-104671905D01*
X200779048Y-104624286D01*
X200731429Y-104529048D01*
X200731429Y-104290952D01*
X200683810Y-104195714D01*
X200445714Y-103814762D02*
X201112381Y-103576667D01*
X200445714Y-103338571D02*
X201112381Y-103576667D01*
X201350476Y-103671905D01*
X201398095Y-103719524D01*
X201445714Y-103814762D01*
X201112381Y-102433809D02*
X201112381Y-103005238D01*
X201112381Y-102719524D02*
X200112381Y-102719524D01*
X200255238Y-102814762D01*
X200350476Y-102910000D01*
X200398095Y-103005238D01*
X181911905Y-94642381D02*
X181911905Y-93642381D01*
X182245239Y-94356667D01*
X182578572Y-93642381D01*
X182578572Y-94642381D01*
X183054762Y-94642381D02*
X183054762Y-93975714D01*
X183054762Y-93642381D02*
X183007143Y-93690000D01*
X183054762Y-93737619D01*
X183102381Y-93690000D01*
X183054762Y-93642381D01*
X183054762Y-93737619D01*
X183959524Y-94594762D02*
X183864286Y-94642381D01*
X183673809Y-94642381D01*
X183578571Y-94594762D01*
X183530952Y-94547143D01*
X183483333Y-94451905D01*
X183483333Y-94166190D01*
X183530952Y-94070952D01*
X183578571Y-94023333D01*
X183673809Y-93975714D01*
X183864286Y-93975714D01*
X183959524Y-94023333D01*
X184388095Y-94642381D02*
X184388095Y-93975714D01*
X184388095Y-94166190D02*
X184435714Y-94070952D01*
X184483333Y-94023333D01*
X184578571Y-93975714D01*
X184673810Y-93975714D01*
X185150000Y-94642381D02*
X185054762Y-94594762D01*
X185007143Y-94547143D01*
X184959524Y-94451905D01*
X184959524Y-94166190D01*
X185007143Y-94070952D01*
X185054762Y-94023333D01*
X185150000Y-93975714D01*
X185292858Y-93975714D01*
X185388096Y-94023333D01*
X185435715Y-94070952D01*
X185483334Y-94166190D01*
X185483334Y-94451905D01*
X185435715Y-94547143D01*
X185388096Y-94594762D01*
X185292858Y-94642381D01*
X185150000Y-94642381D01*
X186435715Y-94642381D02*
X185864286Y-94642381D01*
X186150000Y-94642381D02*
X186150000Y-93642381D01*
X186054762Y-93785238D01*
X185959524Y-93880476D01*
X185864286Y-93928095D01*
X179157619Y-89352381D02*
X179157619Y-88352381D01*
X179538572Y-88352381D01*
X179633810Y-88400000D01*
X179681429Y-88447619D01*
X179729048Y-88542857D01*
X179729048Y-88685714D01*
X179681429Y-88780952D01*
X179633810Y-88828571D01*
X179538572Y-88876190D01*
X179157619Y-88876190D01*
X180300476Y-89352381D02*
X180205238Y-89304762D01*
X180157619Y-89257143D01*
X180110000Y-89161905D01*
X180110000Y-88876190D01*
X180157619Y-88780952D01*
X180205238Y-88733333D01*
X180300476Y-88685714D01*
X180443334Y-88685714D01*
X180538572Y-88733333D01*
X180586191Y-88780952D01*
X180633810Y-88876190D01*
X180633810Y-89161905D01*
X180586191Y-89257143D01*
X180538572Y-89304762D01*
X180443334Y-89352381D01*
X180300476Y-89352381D01*
X180967143Y-88685714D02*
X181157619Y-89352381D01*
X181348096Y-88876190D01*
X181538572Y-89352381D01*
X181729048Y-88685714D01*
X182490953Y-89304762D02*
X182395715Y-89352381D01*
X182205238Y-89352381D01*
X182110000Y-89304762D01*
X182062381Y-89209524D01*
X182062381Y-88828571D01*
X182110000Y-88733333D01*
X182205238Y-88685714D01*
X182395715Y-88685714D01*
X182490953Y-88733333D01*
X182538572Y-88828571D01*
X182538572Y-88923810D01*
X182062381Y-89019048D01*
X182967143Y-89352381D02*
X182967143Y-88685714D01*
X182967143Y-88876190D02*
X183014762Y-88780952D01*
X183062381Y-88733333D01*
X183157619Y-88685714D01*
X183252858Y-88685714D01*
X184110001Y-89352381D02*
X183538572Y-89352381D01*
X183824286Y-89352381D02*
X183824286Y-88352381D01*
X183729048Y-88495238D01*
X183633810Y-88590476D01*
X183538572Y-88638095D01*
X188516190Y-89352381D02*
X188516190Y-88352381D01*
X188897143Y-88352381D01*
X188992381Y-88400000D01*
X189040000Y-88447619D01*
X189087619Y-88542857D01*
X189087619Y-88685714D01*
X189040000Y-88780952D01*
X188992381Y-88828571D01*
X188897143Y-88876190D01*
X188516190Y-88876190D01*
X189516190Y-89352381D02*
X189516190Y-88685714D01*
X189516190Y-88876190D02*
X189563809Y-88780952D01*
X189611428Y-88733333D01*
X189706666Y-88685714D01*
X189801905Y-88685714D01*
X190278095Y-89352381D02*
X190182857Y-89304762D01*
X190135238Y-89257143D01*
X190087619Y-89161905D01*
X190087619Y-88876190D01*
X190135238Y-88780952D01*
X190182857Y-88733333D01*
X190278095Y-88685714D01*
X190420953Y-88685714D01*
X190516191Y-88733333D01*
X190563810Y-88780952D01*
X190611429Y-88876190D01*
X190611429Y-89161905D01*
X190563810Y-89257143D01*
X190516191Y-89304762D01*
X190420953Y-89352381D01*
X190278095Y-89352381D01*
X191468572Y-88685714D02*
X191468572Y-89495238D01*
X191420953Y-89590476D01*
X191373334Y-89638095D01*
X191278095Y-89685714D01*
X191135238Y-89685714D01*
X191040000Y-89638095D01*
X191468572Y-89304762D02*
X191373334Y-89352381D01*
X191182857Y-89352381D01*
X191087619Y-89304762D01*
X191040000Y-89257143D01*
X190992381Y-89161905D01*
X190992381Y-88876190D01*
X191040000Y-88780952D01*
X191087619Y-88733333D01*
X191182857Y-88685714D01*
X191373334Y-88685714D01*
X191468572Y-88733333D01*
X191944762Y-89352381D02*
X191944762Y-88685714D01*
X191944762Y-88876190D02*
X191992381Y-88780952D01*
X192040000Y-88733333D01*
X192135238Y-88685714D01*
X192230477Y-88685714D01*
X192992382Y-89352381D02*
X192992382Y-88828571D01*
X192944763Y-88733333D01*
X192849525Y-88685714D01*
X192659048Y-88685714D01*
X192563810Y-88733333D01*
X192992382Y-89304762D02*
X192897144Y-89352381D01*
X192659048Y-89352381D01*
X192563810Y-89304762D01*
X192516191Y-89209524D01*
X192516191Y-89114286D01*
X192563810Y-89019048D01*
X192659048Y-88971429D01*
X192897144Y-88971429D01*
X192992382Y-88923810D01*
X193468572Y-89352381D02*
X193468572Y-88685714D01*
X193468572Y-88780952D02*
X193516191Y-88733333D01*
X193611429Y-88685714D01*
X193754287Y-88685714D01*
X193849525Y-88733333D01*
X193897144Y-88828571D01*
X193897144Y-89352381D01*
X193897144Y-88828571D02*
X193944763Y-88733333D01*
X194040001Y-88685714D01*
X194182858Y-88685714D01*
X194278096Y-88733333D01*
X194325715Y-88828571D01*
X194325715Y-89352381D01*
X194801905Y-89352381D02*
X194801905Y-88685714D01*
X194801905Y-88352381D02*
X194754286Y-88400000D01*
X194801905Y-88447619D01*
X194849524Y-88400000D01*
X194801905Y-88352381D01*
X194801905Y-88447619D01*
X195278095Y-88685714D02*
X195278095Y-89352381D01*
X195278095Y-88780952D02*
X195325714Y-88733333D01*
X195420952Y-88685714D01*
X195563810Y-88685714D01*
X195659048Y-88733333D01*
X195706667Y-88828571D01*
X195706667Y-89352381D01*
X196611429Y-88685714D02*
X196611429Y-89495238D01*
X196563810Y-89590476D01*
X196516191Y-89638095D01*
X196420952Y-89685714D01*
X196278095Y-89685714D01*
X196182857Y-89638095D01*
X196611429Y-89304762D02*
X196516191Y-89352381D01*
X196325714Y-89352381D01*
X196230476Y-89304762D01*
X196182857Y-89257143D01*
X196135238Y-89161905D01*
X196135238Y-88876190D01*
X196182857Y-88780952D01*
X196230476Y-88733333D01*
X196325714Y-88685714D01*
X196516191Y-88685714D01*
X196611429Y-88733333D01*
X197611429Y-89352381D02*
X197040000Y-89352381D01*
X197325714Y-89352381D02*
X197325714Y-88352381D01*
X197230476Y-88495238D01*
X197135238Y-88590476D01*
X197040000Y-88638095D01*
X192953334Y-97402381D02*
X192620000Y-96926190D01*
X192381905Y-97402381D02*
X192381905Y-96402381D01*
X192762858Y-96402381D01*
X192858096Y-96450000D01*
X192905715Y-96497619D01*
X192953334Y-96592857D01*
X192953334Y-96735714D01*
X192905715Y-96830952D01*
X192858096Y-96878571D01*
X192762858Y-96926190D01*
X192381905Y-96926190D01*
X193905715Y-97402381D02*
X193334286Y-97402381D01*
X193620000Y-97402381D02*
X193620000Y-96402381D01*
X193524762Y-96545238D01*
X193429524Y-96640476D01*
X193334286Y-96688095D01*
X192953334Y-105022381D02*
X192620000Y-104546190D01*
X192381905Y-105022381D02*
X192381905Y-104022381D01*
X192762858Y-104022381D01*
X192858096Y-104070000D01*
X192905715Y-104117619D01*
X192953334Y-104212857D01*
X192953334Y-104355714D01*
X192905715Y-104450952D01*
X192858096Y-104498571D01*
X192762858Y-104546190D01*
X192381905Y-104546190D01*
X193334286Y-104117619D02*
X193381905Y-104070000D01*
X193477143Y-104022381D01*
X193715239Y-104022381D01*
X193810477Y-104070000D01*
X193858096Y-104117619D01*
X193905715Y-104212857D01*
X193905715Y-104308095D01*
X193858096Y-104450952D01*
X193286667Y-105022381D01*
X193905715Y-105022381D01*
X192873334Y-112642381D02*
X192540000Y-112166190D01*
X192301905Y-112642381D02*
X192301905Y-111642381D01*
X192682858Y-111642381D01*
X192778096Y-111690000D01*
X192825715Y-111737619D01*
X192873334Y-111832857D01*
X192873334Y-111975714D01*
X192825715Y-112070952D01*
X192778096Y-112118571D01*
X192682858Y-112166190D01*
X192301905Y-112166190D01*
X193206667Y-111642381D02*
X193825715Y-111642381D01*
X193492381Y-112023333D01*
X193635239Y-112023333D01*
X193730477Y-112070952D01*
X193778096Y-112118571D01*
X193825715Y-112213810D01*
X193825715Y-112451905D01*
X193778096Y-112547143D01*
X193730477Y-112594762D01*
X193635239Y-112642381D01*
X193349524Y-112642381D01*
X193254286Y-112594762D01*
X193206667Y-112547143D01*
X192953334Y-101212381D02*
X192620000Y-100736190D01*
X192381905Y-101212381D02*
X192381905Y-100212381D01*
X192762858Y-100212381D01*
X192858096Y-100260000D01*
X192905715Y-100307619D01*
X192953334Y-100402857D01*
X192953334Y-100545714D01*
X192905715Y-100640952D01*
X192858096Y-100688571D01*
X192762858Y-100736190D01*
X192381905Y-100736190D01*
X193810477Y-100545714D02*
X193810477Y-101212381D01*
X193572381Y-100164762D02*
X193334286Y-100879048D01*
X193953334Y-100879048D01*
X192953334Y-108832381D02*
X192620000Y-108356190D01*
X192381905Y-108832381D02*
X192381905Y-107832381D01*
X192762858Y-107832381D01*
X192858096Y-107880000D01*
X192905715Y-107927619D01*
X192953334Y-108022857D01*
X192953334Y-108165714D01*
X192905715Y-108260952D01*
X192858096Y-108308571D01*
X192762858Y-108356190D01*
X192381905Y-108356190D01*
X193858096Y-107832381D02*
X193381905Y-107832381D01*
X193334286Y-108308571D01*
X193381905Y-108260952D01*
X193477143Y-108213333D01*
X193715239Y-108213333D01*
X193810477Y-108260952D01*
X193858096Y-108308571D01*
X193905715Y-108403810D01*
X193905715Y-108641905D01*
X193858096Y-108737143D01*
X193810477Y-108784762D01*
X193715239Y-108832381D01*
X193477143Y-108832381D01*
X193381905Y-108784762D01*
X193334286Y-108737143D01*
X192873334Y-116452381D02*
X192540000Y-115976190D01*
X192301905Y-116452381D02*
X192301905Y-115452381D01*
X192682858Y-115452381D01*
X192778096Y-115500000D01*
X192825715Y-115547619D01*
X192873334Y-115642857D01*
X192873334Y-115785714D01*
X192825715Y-115880952D01*
X192778096Y-115928571D01*
X192682858Y-115976190D01*
X192301905Y-115976190D01*
X193730477Y-115452381D02*
X193540000Y-115452381D01*
X193444762Y-115500000D01*
X193397143Y-115547619D01*
X193301905Y-115690476D01*
X193254286Y-115880952D01*
X193254286Y-116261905D01*
X193301905Y-116357143D01*
X193349524Y-116404762D01*
X193444762Y-116452381D01*
X193635239Y-116452381D01*
X193730477Y-116404762D01*
X193778096Y-116357143D01*
X193825715Y-116261905D01*
X193825715Y-116023810D01*
X193778096Y-115928571D01*
X193730477Y-115880952D01*
X193635239Y-115833333D01*
X193444762Y-115833333D01*
X193349524Y-115880952D01*
X193301905Y-115928571D01*
X193254286Y-116023810D01*
X196032381Y-123610476D02*
X195556190Y-123943810D01*
X196032381Y-124181905D02*
X195032381Y-124181905D01*
X195032381Y-123800952D01*
X195080000Y-123705714D01*
X195127619Y-123658095D01*
X195222857Y-123610476D01*
X195365714Y-123610476D01*
X195460952Y-123658095D01*
X195508571Y-123705714D01*
X195556190Y-123800952D01*
X195556190Y-124181905D01*
X195984762Y-122800952D02*
X196032381Y-122896190D01*
X196032381Y-123086667D01*
X195984762Y-123181905D01*
X195889524Y-123229524D01*
X195508571Y-123229524D01*
X195413333Y-123181905D01*
X195365714Y-123086667D01*
X195365714Y-122896190D01*
X195413333Y-122800952D01*
X195508571Y-122753333D01*
X195603810Y-122753333D01*
X195699048Y-123229524D01*
X196032381Y-122181905D02*
X195984762Y-122277143D01*
X195889524Y-122324762D01*
X195032381Y-122324762D01*
X196032381Y-121372380D02*
X195508571Y-121372380D01*
X195413333Y-121419999D01*
X195365714Y-121515237D01*
X195365714Y-121705714D01*
X195413333Y-121800952D01*
X195984762Y-121372380D02*
X196032381Y-121467618D01*
X196032381Y-121705714D01*
X195984762Y-121800952D01*
X195889524Y-121848571D01*
X195794286Y-121848571D01*
X195699048Y-121800952D01*
X195651429Y-121705714D01*
X195651429Y-121467618D01*
X195603810Y-121372380D01*
X195365714Y-120991428D02*
X196032381Y-120753333D01*
X195365714Y-120515237D02*
X196032381Y-120753333D01*
X196270476Y-120848571D01*
X196318095Y-120896190D01*
X196365714Y-120991428D01*
X196032381Y-119610475D02*
X196032381Y-120181904D01*
X196032381Y-119896190D02*
X195032381Y-119896190D01*
X195175238Y-119991428D01*
X195270476Y-120086666D01*
X195318095Y-120181904D01*
X190904762Y-125443810D02*
X190952381Y-125300953D01*
X190952381Y-125062857D01*
X190904762Y-124967619D01*
X190857143Y-124920000D01*
X190761905Y-124872381D01*
X190666667Y-124872381D01*
X190571429Y-124920000D01*
X190523810Y-124967619D01*
X190476190Y-125062857D01*
X190428571Y-125253334D01*
X190380952Y-125348572D01*
X190333333Y-125396191D01*
X190238095Y-125443810D01*
X190142857Y-125443810D01*
X190047619Y-125396191D01*
X190000000Y-125348572D01*
X189952381Y-125253334D01*
X189952381Y-125015238D01*
X190000000Y-124872381D01*
X190285714Y-124539048D02*
X190952381Y-124348572D01*
X190476190Y-124158095D01*
X190952381Y-123967619D01*
X190285714Y-123777143D01*
X190952381Y-123396191D02*
X190285714Y-123396191D01*
X189952381Y-123396191D02*
X190000000Y-123443810D01*
X190047619Y-123396191D01*
X190000000Y-123348572D01*
X189952381Y-123396191D01*
X190047619Y-123396191D01*
X190285714Y-123062858D02*
X190285714Y-122681906D01*
X189952381Y-122920001D02*
X190809524Y-122920001D01*
X190904762Y-122872382D01*
X190952381Y-122777144D01*
X190952381Y-122681906D01*
X190904762Y-121920000D02*
X190952381Y-122015238D01*
X190952381Y-122205715D01*
X190904762Y-122300953D01*
X190857143Y-122348572D01*
X190761905Y-122396191D01*
X190476190Y-122396191D01*
X190380952Y-122348572D01*
X190333333Y-122300953D01*
X190285714Y-122205715D01*
X190285714Y-122015238D01*
X190333333Y-121920000D01*
X190952381Y-121491429D02*
X189952381Y-121491429D01*
X190952381Y-121062857D02*
X190428571Y-121062857D01*
X190333333Y-121110476D01*
X190285714Y-121205714D01*
X190285714Y-121348572D01*
X190333333Y-121443810D01*
X190380952Y-121491429D01*
X190904762Y-120205714D02*
X190952381Y-120300952D01*
X190952381Y-120491429D01*
X190904762Y-120586667D01*
X190809524Y-120634286D01*
X190428571Y-120634286D01*
X190333333Y-120586667D01*
X190285714Y-120491429D01*
X190285714Y-120300952D01*
X190333333Y-120205714D01*
X190428571Y-120158095D01*
X190523810Y-120158095D01*
X190619048Y-120634286D01*
X190904762Y-119777143D02*
X190952381Y-119681905D01*
X190952381Y-119491429D01*
X190904762Y-119396190D01*
X190809524Y-119348571D01*
X190761905Y-119348571D01*
X190666667Y-119396190D01*
X190619048Y-119491429D01*
X190619048Y-119634286D01*
X190571429Y-119729524D01*
X190476190Y-119777143D01*
X190428571Y-119777143D01*
X190333333Y-119729524D01*
X190285714Y-119634286D01*
X190285714Y-119491429D01*
X190333333Y-119396190D01*
X190952381Y-118396190D02*
X190952381Y-118967619D01*
X190952381Y-118681905D02*
X189952381Y-118681905D01*
X190095238Y-118777143D01*
X190190476Y-118872381D01*
X190238095Y-118967619D01*
X163282381Y-121117620D02*
X163282381Y-120546191D01*
X164282381Y-120831906D02*
X163282381Y-120831906D01*
X164282381Y-120212858D02*
X163282381Y-120212858D01*
X164282381Y-119784286D02*
X163758571Y-119784286D01*
X163663333Y-119831905D01*
X163615714Y-119927143D01*
X163615714Y-120070001D01*
X163663333Y-120165239D01*
X163710952Y-120212858D01*
X164234762Y-118927143D02*
X164282381Y-119022381D01*
X164282381Y-119212858D01*
X164234762Y-119308096D01*
X164139524Y-119355715D01*
X163758571Y-119355715D01*
X163663333Y-119308096D01*
X163615714Y-119212858D01*
X163615714Y-119022381D01*
X163663333Y-118927143D01*
X163758571Y-118879524D01*
X163853810Y-118879524D01*
X163949048Y-119355715D01*
X164282381Y-118450953D02*
X163615714Y-118450953D01*
X163806190Y-118450953D02*
X163710952Y-118403334D01*
X163663333Y-118355715D01*
X163615714Y-118260477D01*
X163615714Y-118165238D01*
X164282381Y-117831905D02*
X163615714Y-117831905D01*
X163710952Y-117831905D02*
X163663333Y-117784286D01*
X163615714Y-117689048D01*
X163615714Y-117546190D01*
X163663333Y-117450952D01*
X163758571Y-117403333D01*
X164282381Y-117403333D01*
X163758571Y-117403333D02*
X163663333Y-117355714D01*
X163615714Y-117260476D01*
X163615714Y-117117619D01*
X163663333Y-117022381D01*
X163758571Y-116974762D01*
X164282381Y-116974762D01*
X164282381Y-116355715D02*
X164234762Y-116450953D01*
X164187143Y-116498572D01*
X164091905Y-116546191D01*
X163806190Y-116546191D01*
X163710952Y-116498572D01*
X163663333Y-116450953D01*
X163615714Y-116355715D01*
X163615714Y-116212857D01*
X163663333Y-116117619D01*
X163710952Y-116070000D01*
X163806190Y-116022381D01*
X164091905Y-116022381D01*
X164187143Y-116070000D01*
X164234762Y-116117619D01*
X164282381Y-116212857D01*
X164282381Y-116355715D01*
X164234762Y-115165238D02*
X164282381Y-115260476D01*
X164282381Y-115450953D01*
X164234762Y-115546191D01*
X164187143Y-115593810D01*
X164091905Y-115641429D01*
X163806190Y-115641429D01*
X163710952Y-115593810D01*
X163663333Y-115546191D01*
X163615714Y-115450953D01*
X163615714Y-115260476D01*
X163663333Y-115165238D01*
X164282381Y-114593810D02*
X164234762Y-114689048D01*
X164187143Y-114736667D01*
X164091905Y-114784286D01*
X163806190Y-114784286D01*
X163710952Y-114736667D01*
X163663333Y-114689048D01*
X163615714Y-114593810D01*
X163615714Y-114450952D01*
X163663333Y-114355714D01*
X163710952Y-114308095D01*
X163806190Y-114260476D01*
X164091905Y-114260476D01*
X164187143Y-114308095D01*
X164234762Y-114355714D01*
X164282381Y-114450952D01*
X164282381Y-114593810D01*
X163615714Y-113403333D02*
X164282381Y-113403333D01*
X163615714Y-113831905D02*
X164139524Y-113831905D01*
X164234762Y-113784286D01*
X164282381Y-113689048D01*
X164282381Y-113546190D01*
X164234762Y-113450952D01*
X164187143Y-113403333D01*
X163615714Y-112927143D02*
X164615714Y-112927143D01*
X163663333Y-112927143D02*
X163615714Y-112831905D01*
X163615714Y-112641428D01*
X163663333Y-112546190D01*
X163710952Y-112498571D01*
X163806190Y-112450952D01*
X164091905Y-112450952D01*
X164187143Y-112498571D01*
X164234762Y-112546190D01*
X164282381Y-112641428D01*
X164282381Y-112831905D01*
X164234762Y-112927143D01*
X164282381Y-111879524D02*
X164234762Y-111974762D01*
X164139524Y-112022381D01*
X163282381Y-112022381D01*
X164234762Y-111117618D02*
X164282381Y-111212856D01*
X164282381Y-111403333D01*
X164234762Y-111498571D01*
X164139524Y-111546190D01*
X163758571Y-111546190D01*
X163663333Y-111498571D01*
X163615714Y-111403333D01*
X163615714Y-111212856D01*
X163663333Y-111117618D01*
X163758571Y-111069999D01*
X163853810Y-111069999D01*
X163949048Y-111546190D01*
X164282381Y-110117618D02*
X164282381Y-110689047D01*
X164282381Y-110403333D02*
X163282381Y-110403333D01*
X163425238Y-110498571D01*
X163520476Y-110593809D01*
X163568095Y-110689047D01*
X163282381Y-103337620D02*
X163282381Y-102766191D01*
X164282381Y-103051906D02*
X163282381Y-103051906D01*
X164282381Y-102432858D02*
X163282381Y-102432858D01*
X164282381Y-102004286D02*
X163758571Y-102004286D01*
X163663333Y-102051905D01*
X163615714Y-102147143D01*
X163615714Y-102290001D01*
X163663333Y-102385239D01*
X163710952Y-102432858D01*
X164234762Y-101147143D02*
X164282381Y-101242381D01*
X164282381Y-101432858D01*
X164234762Y-101528096D01*
X164139524Y-101575715D01*
X163758571Y-101575715D01*
X163663333Y-101528096D01*
X163615714Y-101432858D01*
X163615714Y-101242381D01*
X163663333Y-101147143D01*
X163758571Y-101099524D01*
X163853810Y-101099524D01*
X163949048Y-101575715D01*
X164282381Y-100670953D02*
X163615714Y-100670953D01*
X163806190Y-100670953D02*
X163710952Y-100623334D01*
X163663333Y-100575715D01*
X163615714Y-100480477D01*
X163615714Y-100385238D01*
X164282381Y-100051905D02*
X163615714Y-100051905D01*
X163710952Y-100051905D02*
X163663333Y-100004286D01*
X163615714Y-99909048D01*
X163615714Y-99766190D01*
X163663333Y-99670952D01*
X163758571Y-99623333D01*
X164282381Y-99623333D01*
X163758571Y-99623333D02*
X163663333Y-99575714D01*
X163615714Y-99480476D01*
X163615714Y-99337619D01*
X163663333Y-99242381D01*
X163758571Y-99194762D01*
X164282381Y-99194762D01*
X164282381Y-98575715D02*
X164234762Y-98670953D01*
X164187143Y-98718572D01*
X164091905Y-98766191D01*
X163806190Y-98766191D01*
X163710952Y-98718572D01*
X163663333Y-98670953D01*
X163615714Y-98575715D01*
X163615714Y-98432857D01*
X163663333Y-98337619D01*
X163710952Y-98290000D01*
X163806190Y-98242381D01*
X164091905Y-98242381D01*
X164187143Y-98290000D01*
X164234762Y-98337619D01*
X164282381Y-98432857D01*
X164282381Y-98575715D01*
X164234762Y-97385238D02*
X164282381Y-97480476D01*
X164282381Y-97670953D01*
X164234762Y-97766191D01*
X164187143Y-97813810D01*
X164091905Y-97861429D01*
X163806190Y-97861429D01*
X163710952Y-97813810D01*
X163663333Y-97766191D01*
X163615714Y-97670953D01*
X163615714Y-97480476D01*
X163663333Y-97385238D01*
X164282381Y-96813810D02*
X164234762Y-96909048D01*
X164187143Y-96956667D01*
X164091905Y-97004286D01*
X163806190Y-97004286D01*
X163710952Y-96956667D01*
X163663333Y-96909048D01*
X163615714Y-96813810D01*
X163615714Y-96670952D01*
X163663333Y-96575714D01*
X163710952Y-96528095D01*
X163806190Y-96480476D01*
X164091905Y-96480476D01*
X164187143Y-96528095D01*
X164234762Y-96575714D01*
X164282381Y-96670952D01*
X164282381Y-96813810D01*
X163615714Y-95623333D02*
X164282381Y-95623333D01*
X163615714Y-96051905D02*
X164139524Y-96051905D01*
X164234762Y-96004286D01*
X164282381Y-95909048D01*
X164282381Y-95766190D01*
X164234762Y-95670952D01*
X164187143Y-95623333D01*
X163615714Y-95147143D02*
X164615714Y-95147143D01*
X163663333Y-95147143D02*
X163615714Y-95051905D01*
X163615714Y-94861428D01*
X163663333Y-94766190D01*
X163710952Y-94718571D01*
X163806190Y-94670952D01*
X164091905Y-94670952D01*
X164187143Y-94718571D01*
X164234762Y-94766190D01*
X164282381Y-94861428D01*
X164282381Y-95051905D01*
X164234762Y-95147143D01*
X164282381Y-94099524D02*
X164234762Y-94194762D01*
X164139524Y-94242381D01*
X163282381Y-94242381D01*
X164234762Y-93337618D02*
X164282381Y-93432856D01*
X164282381Y-93623333D01*
X164234762Y-93718571D01*
X164139524Y-93766190D01*
X163758571Y-93766190D01*
X163663333Y-93718571D01*
X163615714Y-93623333D01*
X163615714Y-93432856D01*
X163663333Y-93337618D01*
X163758571Y-93289999D01*
X163853810Y-93289999D01*
X163949048Y-93766190D01*
X163377619Y-92909047D02*
X163330000Y-92861428D01*
X163282381Y-92766190D01*
X163282381Y-92528094D01*
X163330000Y-92432856D01*
X163377619Y-92385237D01*
X163472857Y-92337618D01*
X163568095Y-92337618D01*
X163710952Y-92385237D01*
X164282381Y-92956666D01*
X164282381Y-92337618D01*
X170720000Y-95972381D02*
X171053333Y-96972381D01*
X171386667Y-95972381D01*
X171720000Y-96972381D02*
X171720000Y-96305714D01*
X171720000Y-96496190D02*
X171767619Y-96400952D01*
X171815238Y-96353333D01*
X171910476Y-96305714D01*
X172005715Y-96305714D01*
X172720001Y-96924762D02*
X172624763Y-96972381D01*
X172434286Y-96972381D01*
X172339048Y-96924762D01*
X172291429Y-96829524D01*
X172291429Y-96448571D01*
X172339048Y-96353333D01*
X172434286Y-96305714D01*
X172624763Y-96305714D01*
X172720001Y-96353333D01*
X172767620Y-96448571D01*
X172767620Y-96543810D01*
X172291429Y-96639048D01*
X173624763Y-96305714D02*
X173624763Y-97115238D01*
X173577144Y-97210476D01*
X173529525Y-97258095D01*
X173434286Y-97305714D01*
X173291429Y-97305714D01*
X173196191Y-97258095D01*
X173624763Y-96924762D02*
X173529525Y-96972381D01*
X173339048Y-96972381D01*
X173243810Y-96924762D01*
X173196191Y-96877143D01*
X173148572Y-96781905D01*
X173148572Y-96496190D01*
X173196191Y-96400952D01*
X173243810Y-96353333D01*
X173339048Y-96305714D01*
X173529525Y-96305714D01*
X173624763Y-96353333D01*
X174624763Y-96972381D02*
X174053334Y-96972381D01*
X174339048Y-96972381D02*
X174339048Y-95972381D01*
X174243810Y-96115238D01*
X174148572Y-96210476D01*
X174053334Y-96258095D01*
X172656667Y-91682381D02*
X172323333Y-91206190D01*
X172085238Y-91682381D02*
X172085238Y-90682381D01*
X172466191Y-90682381D01*
X172561429Y-90730000D01*
X172609048Y-90777619D01*
X172656667Y-90872857D01*
X172656667Y-91015714D01*
X172609048Y-91110952D01*
X172561429Y-91158571D01*
X172466191Y-91206190D01*
X172085238Y-91206190D01*
X173085238Y-91158571D02*
X173418572Y-91158571D01*
X173561429Y-91682381D02*
X173085238Y-91682381D01*
X173085238Y-90682381D01*
X173561429Y-90682381D01*
X174323334Y-91158571D02*
X173990000Y-91158571D01*
X173990000Y-91682381D02*
X173990000Y-90682381D01*
X174466191Y-90682381D01*
X174990000Y-90682381D02*
X174990000Y-90920476D01*
X174751905Y-90825238D02*
X174990000Y-90920476D01*
X175228096Y-90825238D01*
X174847143Y-91110952D02*
X174990000Y-90920476D01*
X175132858Y-91110952D01*
X175751905Y-90682381D02*
X175751905Y-90920476D01*
X175513810Y-90825238D02*
X175751905Y-90920476D01*
X175990001Y-90825238D01*
X175609048Y-91110952D02*
X175751905Y-90920476D01*
X175894763Y-91110952D01*
M02*
