G04 #@! TF.FileFunction,Legend,Bot*
%FSLAX46Y46*%
G04 Gerber Fmt 4.6, Leading zero omitted, Abs format (unit mm)*
G04 Created by KiCad (PCBNEW 4.0.7) date 03/25/18 14:44:14*
%MOMM*%
%LPD*%
G01*
G04 APERTURE LIST*
%ADD10C,0.100000*%
%ADD11C,0.300000*%
G04 APERTURE END LIST*
D10*
D11*
X183553571Y-127815713D02*
X182839286Y-128315713D01*
X183553571Y-128672856D02*
X182053571Y-128672856D01*
X182053571Y-128101428D01*
X182125000Y-127958570D01*
X182196429Y-127887142D01*
X182339286Y-127815713D01*
X182553571Y-127815713D01*
X182696429Y-127887142D01*
X182767857Y-127958570D01*
X182839286Y-128101428D01*
X182839286Y-128672856D01*
X183482143Y-126601428D02*
X183553571Y-126744285D01*
X183553571Y-127029999D01*
X183482143Y-127172856D01*
X183339286Y-127244285D01*
X182767857Y-127244285D01*
X182625000Y-127172856D01*
X182553571Y-127029999D01*
X182553571Y-126744285D01*
X182625000Y-126601428D01*
X182767857Y-126529999D01*
X182910714Y-126529999D01*
X183053571Y-127244285D01*
X182553571Y-126101428D02*
X182553571Y-125529999D01*
X183553571Y-125887142D02*
X182267857Y-125887142D01*
X182125000Y-125815714D01*
X182053571Y-125672856D01*
X182053571Y-125529999D01*
X183553571Y-124815713D02*
X183482143Y-124958571D01*
X183339286Y-125029999D01*
X182053571Y-125029999D01*
X183553571Y-124029999D02*
X183482143Y-124172857D01*
X183410714Y-124244285D01*
X183267857Y-124315714D01*
X182839286Y-124315714D01*
X182696429Y-124244285D01*
X182625000Y-124172857D01*
X182553571Y-124029999D01*
X182553571Y-123815714D01*
X182625000Y-123672857D01*
X182696429Y-123601428D01*
X182839286Y-123529999D01*
X183267857Y-123529999D01*
X183410714Y-123601428D01*
X183482143Y-123672857D01*
X183553571Y-123815714D01*
X183553571Y-124029999D01*
X182553571Y-123029999D02*
X183553571Y-122744285D01*
X182839286Y-122458571D01*
X183553571Y-122172856D01*
X182553571Y-121887142D01*
X182053571Y-119887142D02*
X182053571Y-119601428D01*
X182125000Y-119458570D01*
X182267857Y-119315713D01*
X182553571Y-119244285D01*
X183053571Y-119244285D01*
X183339286Y-119315713D01*
X183482143Y-119458570D01*
X183553571Y-119601428D01*
X183553571Y-119887142D01*
X183482143Y-120029999D01*
X183339286Y-120172856D01*
X183053571Y-120244285D01*
X182553571Y-120244285D01*
X182267857Y-120172856D01*
X182125000Y-120029999D01*
X182053571Y-119887142D01*
X182553571Y-118744284D02*
X183553571Y-118387141D01*
X182553571Y-118029999D01*
X183482143Y-116887142D02*
X183553571Y-117029999D01*
X183553571Y-117315713D01*
X183482143Y-117458570D01*
X183339286Y-117529999D01*
X182767857Y-117529999D01*
X182625000Y-117458570D01*
X182553571Y-117315713D01*
X182553571Y-117029999D01*
X182625000Y-116887142D01*
X182767857Y-116815713D01*
X182910714Y-116815713D01*
X183053571Y-117529999D01*
X182553571Y-116172856D02*
X183553571Y-116172856D01*
X182696429Y-116172856D02*
X182625000Y-116101428D01*
X182553571Y-115958570D01*
X182553571Y-115744285D01*
X182625000Y-115601428D01*
X182767857Y-115529999D01*
X183553571Y-115529999D01*
X183410714Y-112815713D02*
X183482143Y-112887142D01*
X183553571Y-113101428D01*
X183553571Y-113244285D01*
X183482143Y-113458570D01*
X183339286Y-113601428D01*
X183196429Y-113672856D01*
X182910714Y-113744285D01*
X182696429Y-113744285D01*
X182410714Y-113672856D01*
X182267857Y-113601428D01*
X182125000Y-113458570D01*
X182053571Y-113244285D01*
X182053571Y-113101428D01*
X182125000Y-112887142D01*
X182196429Y-112815713D01*
X183553571Y-111958570D02*
X183482143Y-112101428D01*
X183410714Y-112172856D01*
X183267857Y-112244285D01*
X182839286Y-112244285D01*
X182696429Y-112172856D01*
X182625000Y-112101428D01*
X182553571Y-111958570D01*
X182553571Y-111744285D01*
X182625000Y-111601428D01*
X182696429Y-111529999D01*
X182839286Y-111458570D01*
X183267857Y-111458570D01*
X183410714Y-111529999D01*
X183482143Y-111601428D01*
X183553571Y-111744285D01*
X183553571Y-111958570D01*
X182553571Y-110815713D02*
X183553571Y-110815713D01*
X182696429Y-110815713D02*
X182625000Y-110744285D01*
X182553571Y-110601427D01*
X182553571Y-110387142D01*
X182625000Y-110244285D01*
X182767857Y-110172856D01*
X183553571Y-110172856D01*
X182553571Y-109672856D02*
X182553571Y-109101427D01*
X182053571Y-109458570D02*
X183339286Y-109458570D01*
X183482143Y-109387142D01*
X183553571Y-109244284D01*
X183553571Y-109101427D01*
X183553571Y-108601427D02*
X182553571Y-108601427D01*
X182839286Y-108601427D02*
X182696429Y-108529999D01*
X182625000Y-108458570D01*
X182553571Y-108315713D01*
X182553571Y-108172856D01*
X183553571Y-107458570D02*
X183482143Y-107601428D01*
X183410714Y-107672856D01*
X183267857Y-107744285D01*
X182839286Y-107744285D01*
X182696429Y-107672856D01*
X182625000Y-107601428D01*
X182553571Y-107458570D01*
X182553571Y-107244285D01*
X182625000Y-107101428D01*
X182696429Y-107029999D01*
X182839286Y-106958570D01*
X183267857Y-106958570D01*
X183410714Y-107029999D01*
X183482143Y-107101428D01*
X183553571Y-107244285D01*
X183553571Y-107458570D01*
X183553571Y-106101427D02*
X183482143Y-106244285D01*
X183339286Y-106315713D01*
X182053571Y-106315713D01*
X183553571Y-105315713D02*
X183482143Y-105458571D01*
X183339286Y-105529999D01*
X182053571Y-105529999D01*
X183482143Y-104172857D02*
X183553571Y-104315714D01*
X183553571Y-104601428D01*
X183482143Y-104744285D01*
X183339286Y-104815714D01*
X182767857Y-104815714D01*
X182625000Y-104744285D01*
X182553571Y-104601428D01*
X182553571Y-104315714D01*
X182625000Y-104172857D01*
X182767857Y-104101428D01*
X182910714Y-104101428D01*
X183053571Y-104815714D01*
X183553571Y-103458571D02*
X182553571Y-103458571D01*
X182839286Y-103458571D02*
X182696429Y-103387143D01*
X182625000Y-103315714D01*
X182553571Y-103172857D01*
X182553571Y-103030000D01*
X182553571Y-101530000D02*
X183553571Y-101172857D01*
X182553571Y-100815715D01*
X183553571Y-99458572D02*
X183553571Y-100315715D01*
X183553571Y-99887143D02*
X182053571Y-99887143D01*
X182267857Y-100030000D01*
X182410714Y-100172858D01*
X182482143Y-100315715D01*
X183410714Y-98815715D02*
X183482143Y-98744287D01*
X183553571Y-98815715D01*
X183482143Y-98887144D01*
X183410714Y-98815715D01*
X183553571Y-98815715D01*
X183553571Y-97315715D02*
X183553571Y-98172858D01*
X183553571Y-97744286D02*
X182053571Y-97744286D01*
X182267857Y-97887143D01*
X182410714Y-98030001D01*
X182482143Y-98172858D01*
X186103571Y-126922856D02*
X184603571Y-126922856D01*
X186103571Y-126065713D01*
X184603571Y-126065713D01*
X186103571Y-125351427D02*
X185103571Y-125351427D01*
X184603571Y-125351427D02*
X184675000Y-125422856D01*
X184746429Y-125351427D01*
X184675000Y-125279999D01*
X184603571Y-125351427D01*
X184746429Y-125351427D01*
X186032143Y-123994284D02*
X186103571Y-124137141D01*
X186103571Y-124422855D01*
X186032143Y-124565713D01*
X185960714Y-124637141D01*
X185817857Y-124708570D01*
X185389286Y-124708570D01*
X185246429Y-124637141D01*
X185175000Y-124565713D01*
X185103571Y-124422855D01*
X185103571Y-124137141D01*
X185175000Y-123994284D01*
X186103571Y-123351427D02*
X184603571Y-123351427D01*
X186103571Y-122708570D02*
X185317857Y-122708570D01*
X185175000Y-122779999D01*
X185103571Y-122922856D01*
X185103571Y-123137141D01*
X185175000Y-123279999D01*
X185246429Y-123351427D01*
X186103571Y-121779998D02*
X186032143Y-121922856D01*
X185960714Y-121994284D01*
X185817857Y-122065713D01*
X185389286Y-122065713D01*
X185246429Y-121994284D01*
X185175000Y-121922856D01*
X185103571Y-121779998D01*
X185103571Y-121565713D01*
X185175000Y-121422856D01*
X185246429Y-121351427D01*
X185389286Y-121279998D01*
X185817857Y-121279998D01*
X185960714Y-121351427D01*
X186032143Y-121422856D01*
X186103571Y-121565713D01*
X186103571Y-121779998D01*
X186103571Y-120422855D02*
X186032143Y-120565713D01*
X185889286Y-120637141D01*
X184603571Y-120637141D01*
X186103571Y-119208570D02*
X185317857Y-119208570D01*
X185175000Y-119279999D01*
X185103571Y-119422856D01*
X185103571Y-119708570D01*
X185175000Y-119851427D01*
X186032143Y-119208570D02*
X186103571Y-119351427D01*
X186103571Y-119708570D01*
X186032143Y-119851427D01*
X185889286Y-119922856D01*
X185746429Y-119922856D01*
X185603571Y-119851427D01*
X185532143Y-119708570D01*
X185532143Y-119351427D01*
X185460714Y-119208570D01*
X186032143Y-118565713D02*
X186103571Y-118422856D01*
X186103571Y-118137141D01*
X186032143Y-117994284D01*
X185889286Y-117922856D01*
X185817857Y-117922856D01*
X185675000Y-117994284D01*
X185603571Y-118137141D01*
X185603571Y-118351427D01*
X185532143Y-118494284D01*
X185389286Y-118565713D01*
X185317857Y-118565713D01*
X185175000Y-118494284D01*
X185103571Y-118351427D01*
X185103571Y-118137141D01*
X185175000Y-117994284D01*
X185675000Y-116208570D02*
X185675000Y-115494284D01*
X186103571Y-116351427D02*
X184603571Y-115851427D01*
X186103571Y-115351427D01*
X185103571Y-114851427D02*
X186103571Y-114851427D01*
X185246429Y-114851427D02*
X185175000Y-114779999D01*
X185103571Y-114637141D01*
X185103571Y-114422856D01*
X185175000Y-114279999D01*
X185317857Y-114208570D01*
X186103571Y-114208570D01*
X186103571Y-112851427D02*
X184603571Y-112851427D01*
X186032143Y-112851427D02*
X186103571Y-112994284D01*
X186103571Y-113279998D01*
X186032143Y-113422856D01*
X185960714Y-113494284D01*
X185817857Y-113565713D01*
X185389286Y-113565713D01*
X185246429Y-113494284D01*
X185175000Y-113422856D01*
X185103571Y-113279998D01*
X185103571Y-112994284D01*
X185175000Y-112851427D01*
X186032143Y-111565713D02*
X186103571Y-111708570D01*
X186103571Y-111994284D01*
X186032143Y-112137141D01*
X185889286Y-112208570D01*
X185317857Y-112208570D01*
X185175000Y-112137141D01*
X185103571Y-111994284D01*
X185103571Y-111708570D01*
X185175000Y-111565713D01*
X185317857Y-111494284D01*
X185460714Y-111494284D01*
X185603571Y-112208570D01*
X186103571Y-110851427D02*
X185103571Y-110851427D01*
X185389286Y-110851427D02*
X185246429Y-110779999D01*
X185175000Y-110708570D01*
X185103571Y-110565713D01*
X185103571Y-110422856D01*
X186032143Y-109994285D02*
X186103571Y-109851428D01*
X186103571Y-109565713D01*
X186032143Y-109422856D01*
X185889286Y-109351428D01*
X185817857Y-109351428D01*
X185675000Y-109422856D01*
X185603571Y-109565713D01*
X185603571Y-109779999D01*
X185532143Y-109922856D01*
X185389286Y-109994285D01*
X185317857Y-109994285D01*
X185175000Y-109922856D01*
X185103571Y-109779999D01*
X185103571Y-109565713D01*
X185175000Y-109422856D01*
X186103571Y-108494284D02*
X186032143Y-108637142D01*
X185960714Y-108708570D01*
X185817857Y-108779999D01*
X185389286Y-108779999D01*
X185246429Y-108708570D01*
X185175000Y-108637142D01*
X185103571Y-108494284D01*
X185103571Y-108279999D01*
X185175000Y-108137142D01*
X185246429Y-108065713D01*
X185389286Y-107994284D01*
X185817857Y-107994284D01*
X185960714Y-108065713D01*
X186032143Y-108137142D01*
X186103571Y-108279999D01*
X186103571Y-108494284D01*
X185103571Y-107351427D02*
X186103571Y-107351427D01*
X185246429Y-107351427D02*
X185175000Y-107279999D01*
X185103571Y-107137141D01*
X185103571Y-106922856D01*
X185175000Y-106779999D01*
X185317857Y-106708570D01*
X186103571Y-106708570D01*
X186032143Y-105922856D02*
X186103571Y-105922856D01*
X186246429Y-105994284D01*
X186317857Y-106065713D01*
X184746429Y-104208570D02*
X184675000Y-104137141D01*
X184603571Y-103994284D01*
X184603571Y-103637141D01*
X184675000Y-103494284D01*
X184746429Y-103422855D01*
X184889286Y-103351427D01*
X185032143Y-103351427D01*
X185246429Y-103422855D01*
X186103571Y-104279998D01*
X186103571Y-103351427D01*
X184603571Y-102422856D02*
X184603571Y-102279999D01*
X184675000Y-102137142D01*
X184746429Y-102065713D01*
X184889286Y-101994284D01*
X185175000Y-101922856D01*
X185532143Y-101922856D01*
X185817857Y-101994284D01*
X185960714Y-102065713D01*
X186032143Y-102137142D01*
X186103571Y-102279999D01*
X186103571Y-102422856D01*
X186032143Y-102565713D01*
X185960714Y-102637142D01*
X185817857Y-102708570D01*
X185532143Y-102779999D01*
X185175000Y-102779999D01*
X184889286Y-102708570D01*
X184746429Y-102637142D01*
X184675000Y-102565713D01*
X184603571Y-102422856D01*
X186103571Y-100494285D02*
X186103571Y-101351428D01*
X186103571Y-100922856D02*
X184603571Y-100922856D01*
X184817857Y-101065713D01*
X184960714Y-101208571D01*
X185032143Y-101351428D01*
X185246429Y-99637142D02*
X185175000Y-99780000D01*
X185103571Y-99851428D01*
X184960714Y-99922857D01*
X184889286Y-99922857D01*
X184746429Y-99851428D01*
X184675000Y-99780000D01*
X184603571Y-99637142D01*
X184603571Y-99351428D01*
X184675000Y-99208571D01*
X184746429Y-99137142D01*
X184889286Y-99065714D01*
X184960714Y-99065714D01*
X185103571Y-99137142D01*
X185175000Y-99208571D01*
X185246429Y-99351428D01*
X185246429Y-99637142D01*
X185317857Y-99780000D01*
X185389286Y-99851428D01*
X185532143Y-99922857D01*
X185817857Y-99922857D01*
X185960714Y-99851428D01*
X186032143Y-99780000D01*
X186103571Y-99637142D01*
X186103571Y-99351428D01*
X186032143Y-99208571D01*
X185960714Y-99137142D01*
X185817857Y-99065714D01*
X185532143Y-99065714D01*
X185389286Y-99137142D01*
X185317857Y-99208571D01*
X185246429Y-99351428D01*
M02*
